<?xml version="1.0" standalone="no"?>
<!DOCTYPE svg PUBLIC "-//W3C//DTD SVG 20010904//EN"
 "http://www.w3.org/TR/2001/REC-SVG-20010904/DTD/svg10.dtd">
<svg version="1.0" xmlns="http://www.w3.org/2000/svg"
 width="640.000000pt" height="640.000000pt" viewBox="0 0 640.000000 640.000000"
 preserveAspectRatio="xMidYMid meet">

<g transform="translate(0.000000,640.000000) scale(0.100000,-0.100000)"
fill="#000000" stroke="none">
<path d="M0 3200 l0 -3200 3200 0 3200 0 0 3200 0 3200 -3200 0 -3200 0 0
-3200z m3120 1438 c0 -392 5 -812 10 -933 14 -321 23 -482 27 -464 3 12 13 15
43 13 33 -3 39 0 43 19 2 12 5 5 6 -17 2 -76 16 -23 17 67 1 51 6 277 12 502
7 226 12 660 11 965 l0 555 37 -3 c90 -8 205 -97 247 -192 49 -111 58 -221 33
-385 -19 -121 -28 -158 -92 -385 -70 -244 -126 -465 -164 -640 -72 -335 -80
-474 -80 -1361 0 -484 3 -737 10 -750 14 -25 75 -27 89 -1 5 9 14 62 21 117
45 391 173 784 337 1042 135 213 324 415 535 573 166 125 280 195 523 320 110
56 225 120 255 140 111 76 198 198 215 303 3 20 9 37 13 37 23 0 116 -66 147
-104 121 -148 92 -347 -66 -461 -27 -19 -69 -43 -92 -52 -23 -9 -46 -19 -52
-23 -5 -4 -25 -11 -44 -15 -31 -7 -243 -84 -371 -135 -249 -99 -533 -292 -731
-496 -242 -250 -405 -500 -529 -814 -59 -147 -120 -368 -120 -430 0 -60 83
-61 96 -1 21 102 111 300 197 434 73 113 273 332 387 422 278 220 619 395 919
471 173 44 293 58 486 58 159 -1 192 -4 280 -27 148 -38 172 -50 195 -100 29
-62 51 -128 45 -137 -3 -4 -33 1 -67 12 -119 37 -226 51 -389 51 -168 -1 -238
-9 -429 -55 -287 -67 -559 -188 -821 -364 -78 -52 -147 -100 -154 -108 -7 -7
-47 -41 -89 -77 -102 -85 -246 -235 -328 -340 -91 -116 -198 -287 -198 -315 0
-32 42 -59 68 -45 10 5 36 39 56 74 52 88 214 276 322 373 80 72 233 194 275
219 9 6 45 28 80 49 177 108 477 241 646 286 264 70 301 75 568 75 227 0 258
-2 340 -23 50 -12 119 -36 153 -53 72 -35 103 -75 148 -191 31 -79 26 -93 -26
-77 -314 97 -661 70 -1130 -88 -511 -171 -1003 -455 -1286 -742 l-103 -103
-68 44 c-136 89 -238 115 -418 105 -130 -7 -240 -42 -338 -107 -33 -22 -65
-40 -72 -40 -7 0 -32 21 -55 46 -265 288 -734 579 -1220 758 -508 186 -910
231 -1230 136 -72 -21 -73 -20 -37 82 42 122 73 154 193 197 128 47 230 61
439 60 233 0 350 -14 525 -62 385 -105 751 -302 1037 -559 108 -97 250 -254
309 -342 82 -122 102 -136 139 -96 16 17 16 23 4 52 -17 42 -154 249 -204 308
-118 141 -293 306 -441 416 -339 253 -634 389 -1024 476 -73 16 -143 22 -300
25 -219 6 -285 -1 -420 -42 -41 -13 -78 -21 -82 -19 -7 4 6 43 50 155 12 30
99 67 228 95 103 22 363 23 534 1 493 -62 1067 -390 1402 -800 133 -164 252
-380 287 -522 16 -66 36 -95 65 -95 43 0 51 23 37 98 -63 331 -248 727 -465
996 -163 204 -324 352 -536 495 -208 140 -387 225 -660 311 -182 57 -256 92
-313 148 -81 79 -102 123 -102 217 0 92 12 128 67 202 32 44 123 112 149 113
3 0 11 -24 18 -52 6 -29 24 -75 40 -103 70 -121 132 -166 477 -347 380 -199
538 -315 795 -584 298 -313 502 -804 554 -1334 4 -36 11 -80 17 -98 9 -31 12
-33 51 -30 l42 3 8 290 c11 398 -8 1470 -27 1589 -30 180 -88 437 -147 646
-151 539 -175 657 -166 811 9 169 66 284 174 351 34 20 109 46 141 47 9 1 12
-148 12 -711z m-1086 324 c-8 -75 14 -164 63 -251 27 -49 89 -117 258 -285
270 -269 354 -378 460 -591 99 -201 159 -387 190 -592 18 -122 20 -278 4 -267
-6 3 -9 15 -6 25 3 11 1 19 -4 19 -5 0 -9 7 -9 16 0 37 -76 240 -135 360 -100
203 -208 357 -364 519 -105 109 -167 164 -339 301 -197 157 -291 255 -339 352
-35 69 -38 83 -38 156 0 89 17 134 76 201 31 35 138 94 172 95 16 0 17 -6 11
-58z m671 22 c3 -21 2 -41 -3 -46 -6 -6 -39 -20 -74 -32 -90 -30 -205 -99
-282 -168 -39 -36 -72 -58 -81 -55 -21 8 -48 55 -42 71 11 27 158 144 230 182
62 33 199 82 233 83 7 1 15 -15 19 -35z m1145 -1 c88 -32 162 -75 241 -138 79
-64 100 -102 75 -140 -21 -32 -36 -32 -67 1 -70 75 -264 189 -356 209 -32 6
-33 8 -33 55 l0 49 38 -6 c20 -3 66 -17 102 -30z m616 5 c136 -63 198 -211
153 -361 -36 -118 -113 -206 -349 -400 -224 -183 -351 -303 -460 -432 -157
-187 -297 -447 -371 -690 -23 -77 -46 -144 -52 -150 -7 -7 -8 -7 -4 0 3 6 7
59 8 118 5 235 82 534 196 762 105 209 185 309 473 595 195 194 230 234 257
290 40 83 57 169 49 244 l-6 58 29 -5 c16 -4 51 -16 77 -29z m-2806 -406 c0
-132 127 -297 400 -522 319 -262 488 -443 632 -673 32 -51 128 -241 128 -253
0 -5 13 -41 29 -80 32 -79 50 -149 31 -124 -9 12 -10 10 -5 -9 5 -15 3 -21 -3
-17 -6 4 -8 -2 -4 -16 l5 -22 8 22 c5 12 12 22 15 22 4 0 4 -3 1 -7 -4 -3 -3
-11 2 -17 17 -23 20 -63 6 -82 -20 -26 -19 -39 1 -19 14 13 19 14 25 3 5 -7 9
-17 9 -23 0 -5 -4 -4 -9 4 -8 12 -12 12 -25 -2 -9 -8 -16 -21 -16 -27 0 -6 -5
-8 -10 -5 -6 4 -8 10 -5 15 3 4 1 10 -4 12 -14 5 -62 108 -56 118 4 6 0 10 -8
10 -8 0 -20 14 -27 30 -21 51 -162 259 -247 365 -179 223 -402 402 -747 599
-245 140 -341 214 -394 306 -37 62 -38 173 -4 240 42 81 145 166 230 190 37
10 42 5 42 -38z m3189 7 c83 -45 134 -91 165 -153 25 -50 28 -64 24 -125 -6
-84 -39 -148 -112 -221 -49 -50 -114 -92 -356 -235 -109 -64 -279 -173 -290
-186 -3 -3 -31 -25 -63 -48 -193 -141 -443 -436 -578 -681 -29 -52 -55 -97
-59 -100 -3 -3 -12 -20 -19 -37 -8 -18 -18 -33 -24 -33 -6 0 -7 -3 -4 -6 3 -4
1 -16 -5 -28 -7 -11 -11 -25 -10 -29 1 -5 -2 -6 -8 -2 -5 3 -10 1 -10 -6 0 -7
-3 -10 -6 -7 -3 4 2 18 11 32 16 24 16 26 1 20 -14 -5 -16 -2 -10 20 3 15 2
26 -4 26 -6 0 -6 15 0 43 5 23 12 54 15 70 3 15 9 27 14 27 5 0 5 7 2 17 -5
12 -3 14 7 8 8 -5 11 -4 7 2 -9 14 8 68 21 66 7 -2 9 4 5 14 -4 11 -3 14 5 9
7 -4 10 -2 7 6 -12 31 126 313 213 438 52 73 109 147 132 171 8 8 34 38 57 66
53 62 264 253 398 360 55 45 144 126 197 181 109 113 152 190 170 298 13 74
11 73 107 23z m-3936 -1074 c41 -46 69 -65 170 -115 67 -33 129 -60 138 -60
10 0 21 -4 24 -10 3 -5 13 -10 22 -10 14 0 66 -20 105 -41 10 -5 24 -9 32 -9
8 0 22 -7 30 -16 10 -10 16 -11 16 -3 0 9 3 9 14 -1 8 -6 12 -19 10 -28 -5
-15 -4 -15 9 1 12 14 16 15 26 4 6 -8 8 -16 5 -19 -2 -3 2 -8 11 -12 13 -5 15
-1 10 17 -5 19 -5 20 5 4 6 -9 16 -14 22 -11 7 4 8 2 4 -4 -12 -20 3 -33 24
-22 11 6 21 6 24 1 4 -5 1 -11 -6 -13 -7 -3 -2 -7 11 -11 17 -4 21 -2 17 8 -3
9 0 12 10 8 13 -5 18 -19 17 -50 0 -6 6 -9 13 -6 17 6 19 23 2 23 -6 0 -8 3
-5 7 4 3 18 -5 31 -18 37 -37 52 -47 72 -51 11 -2 21 -6 24 -9 3 -4 21 -16 40
-28 19 -11 28 -21 20 -21 -9 0 -21 5 -28 12 -13 13 -15 8 -7 -14 3 -8 17 -13
33 -12 22 1 27 -2 27 -22 0 -29 3 -28 -43 -5 -178 90 -509 187 -737 216 -150
19 -255 19 -381 0 -124 -19 -134 -19 -134 0 0 22 56 129 103 199 37 55 151
176 165 176 4 0 29 -25 55 -55z m4694 -2 c105 -113 203 -268 203 -322 0 -19
-4 -22 -22 -17 -105 30 -383 44 -483 25 -27 -5 -63 -12 -80 -14 -143 -24 -497
-132 -605 -184 -22 -11 -40 -15 -40 -9 0 5 -7 2 -16 -6 -23 -24 -29 -20 -29
19 0 19 3 35 8 35 4 0 7 -10 7 -22 0 -18 2 -20 9 -9 5 8 7 21 4 30 -3 11 0 10
12 -4 17 -19 17 -19 11 10 l-6 30 15 -27 c20 -35 28 -36 15 -2 -9 22 -7 27 10
31 11 3 20 9 20 14 0 5 7 9 16 9 8 0 23 7 32 16 15 15 16 15 23 -2 7 -17 8
-16 8 4 1 13 5 21 10 17 5 -3 13 0 17 6 4 8 9 7 16 -2 7 -10 8 -8 3 8 -3 12
-1 24 5 28 5 3 10 1 10 -6 0 -8 7 -6 19 5 11 10 25 15 31 11 6 -3 9 -1 8 7 -2
8 5 12 20 10 12 -2 21 1 20 6 -2 6 -1 10 2 9 3 0 16 6 30 13 14 8 28 14 32 15
3 0 10 3 14 8 13 13 23 7 17 -10 -3 -12 0 -10 11 5 10 12 21 20 26 17 4 -3 10
-2 12 3 3 8 136 59 173 66 62 12 291 156 321 202 23 35 42 30 91 -23z m-3677
-524 c0 -5 -6 -7 -12 -3 -9 5 -8 2 1 -9 7 -10 19 -17 25 -16 25 3 36 -2 36
-16 0 -19 -39 -20 -46 -1 -3 8 -12 12 -20 9 -10 -4 -14 3 -14 21 0 16 6 26 15
26 8 0 15 -5 15 -11z m2590 -30 c0 -6 -4 -8 -9 -4 -5 3 -12 1 -16 -5 -3 -5
-11 -10 -17 -10 -6 0 -3 8 8 19 19 18 34 19 34 0z m-1030 -189 c0 -5 -4 -10
-10 -10 -5 0 -10 5 -10 10 0 6 5 10 10 10 6 0 10 -4 10 -10z m-576 -36 c3 -8
2 -12 -4 -9 -6 3 -10 10 -10 16 0 14 7 11 14 -7z m36 -101 c0 -25 -15 -12 -17
14 -1 19 1 22 8 12 5 -8 9 -20 9 -26z m-86 -1493 c24 -42 107 -86 195 -106 91
-20 259 -14 336 12 60 21 129 66 151 100 9 13 20 24 25 24 14 0 12 -797 -3
-806 -13 -8 -27 7 -231 239 -71 81 -131 147 -134 147 -5 0 -12 -8 -163 -176
-184 -206 -196 -218 -208 -210 -9 5 -12 111 -12 391 0 435 2 455 44 385z"/>
<path d="M2791 2934 c0 -11 3 -14 6 -6 3 7 2 16 -1 19 -3 4 -6 -2 -5 -13z"/>
<path d="M2891 2860 c-1 -14 -4 -33 -6 -44 -2 -12 0 -15 6 -9 6 6 9 26 6 44
-3 26 -4 28 -6 9z"/>
<path d="M2846 2844 c-4 -9 -4 -19 -1 -22 3 -3 5 0 5 7 0 7 4 9 10 6 6 -3 7 1
4 9 -8 20 -10 20 -18 0z"/>
<path d="M3530 2864 c0 -8 5 -12 10 -9 6 4 8 11 5 16 -9 14 -15 11 -15 -7z"/>
<path d="M4620 3055 c0 -8 5 -15 10 -15 6 0 10 7 10 15 0 8 -4 15 -10 15 -5 0
-10 -7 -10 -15z"/>
</g>
</svg>
